<?xml version="1.0" encoding="UTF-8"?>
<svg xmlns="http://www.w3.org/2000/svg" id="Layer_1" data-name="Layer 1" viewBox="0 0 512 512" width="512" height="512"><path d="M496.371,236.643l-34.2-3.249a204.983,204.983,0,0,0-7.5-36.694l30.09-16.238a5.994,5.994,0,0,0,2.664-7.624l-10.465-24.652a6,6,0,0,0-7.324-3.381l-32.729,10.281A207.618,207.618,0,0,0,417.677,126.7l21.858-26.41a6,6,0,0,0-.385-8.074L420.175,73.29a6,6,0,0,0-8.052-.384l-26.5,21.821A208.111,208.111,0,0,0,354.39,74l9.794-32.755a6,6,0,0,0-3.5-7.281L335.812,23.911a6,6,0,0,0-7.567,2.785L312.43,56.977a206.322,206.322,0,0,0-33.784-6.55l-3.255-34A6,6,0,0,0,269.418,11H242.582a6,6,0,0,0-5.973,5.428l-3.255,34a206.253,206.253,0,0,0-36.817,7.445L180.252,27.823a6,6,0,0,0-7.608-2.669L147.931,35.586a6,6,0,0,0-3.389,7.334l10.3,32.618a208.109,208.109,0,0,0-28.465,19.189l-26.5-21.821a6,6,0,0,0-8.052.384L72.85,92.217a6,6,0,0,0-.385,8.074L94.324,126.7a207.574,207.574,0,0,0-20.767,31.148l-32.865-9.777a6,6,0,0,0-7.269,3.493L23.344,176.373a6,6,0,0,0,2.792,7.582l30.348,15.772a204.983,204.983,0,0,0-6.559,33.667l-34.3,3.249A6.177,6.177,0,0,0,10,242.616v26.768a6.177,6.177,0,0,0,5.629,5.973l34.2,3.249A204.9,204.9,0,0,0,57.331,315.3l-30.09,16.238a5.992,5.992,0,0,0-2.663,7.624l10.464,24.652a6,6,0,0,0,7.326,3.381L75.1,356.914A207.625,207.625,0,0,0,94.324,385.3l-21.859,26.41a6,6,0,0,0,.385,8.074L91.825,438.71a6,6,0,0,0,8.052.384l26.5-21.821A208.111,208.111,0,0,0,157.61,438l-9.794,32.755a6,6,0,0,0,3.5,7.281l24.872,10.055a6,6,0,0,0,7.567-2.785l15.815-30.281a206.322,206.322,0,0,0,33.784,6.55l3.255,34A6,6,0,0,0,242.582,501h26.836a6,6,0,0,0,5.973-5.428l3.255-34a206.253,206.253,0,0,0,36.817-7.445l16.285,30.049a6,6,0,0,0,7.608,2.669l24.713-10.432a6,6,0,0,0,3.389-7.334l-10.3-32.618a208.17,208.17,0,0,0,28.465-19.189l26.5,21.821a6,6,0,0,0,8.052-.384l18.975-18.927a6,6,0,0,0,.385-8.074L417.676,385.3a207.492,207.492,0,0,0,20.766-31.148l32.866,9.777a5.995,5.995,0,0,0,7.269-3.493l10.079-24.808a6,6,0,0,0-2.792-7.582l-30.348-15.772a204.981,204.981,0,0,0,6.558-33.667l34.3-3.249A6.177,6.177,0,0,0,502,269.384V242.616A6.177,6.177,0,0,0,496.371,236.643ZM48.7,266.458,22,263.928V248.072l26.747-2.53c-.174,3.465-.164,6.951-.164,10.458S48.523,262.993,48.7,266.458ZM468.032,157.885l6.2,14.609-23.45,12.644a205.468,205.468,0,0,0-8.2-19.256Zm-52.48-72.257,11.253,11.224-17.036,20.583a209.226,209.226,0,0,0-14.85-14.815ZM336.361,37.077l14.76,5.966-7.623,25.5a206.577,206.577,0,0,0-19.446-7.893ZM248.035,23h15.93L266.5,49.452q-5.217-.261-10.5-.264t-10.5.264ZM172.3,38.326,184.961,61.7a206.456,206.456,0,0,0-19.32,8.192L157.63,44.517ZM85.2,96.852,96.448,85.628l20.633,16.992a209,209,0,0,0-14.849,14.815ZM36.518,175.827l5.972-14.7,25.58,7.61a205.065,205.065,0,0,0-7.9,19.381Zm7.45,178.288-6.2-14.609,23.45-12.644a205.468,205.468,0,0,0,8.2,19.256Zm52.48,72.257L85.2,415.148l17.037-20.583a209,209,0,0,0,14.849,14.815Zm79.191,48.551-14.76-5.966,7.623-25.5a206.577,206.577,0,0,0,19.446,7.893ZM263.965,489h-15.93L245.5,462.548q5.217.261,10.5.264t10.5-.264Zm75.74-15.326L327.039,450.3a206.342,206.342,0,0,0,19.32-8.192l8.011,25.373Zm87.1-58.526-11.253,11.224L394.919,409.38a209.226,209.226,0,0,0,14.85-14.815ZM256,450.812C148.3,450.812,60.682,363.419,60.682,256S148.3,61.188,256,61.188,451.318,148.581,451.318,256,363.7,450.812,256,450.812ZM475.482,336.173l-5.972,14.7-25.58-7.61a204.8,204.8,0,0,0,7.9-19.381ZM490,263.928l-26.747,2.53c.174-3.465.165-6.951.165-10.458s.059-6.993-.115-10.458l26.7,2.53Z"/><path d="M256,79.792a176.612,176.612,0,0,0-121.387,48.162,5.989,5.989,0,0,0-.1,8.586h0a6.005,6.005,0,0,0,8.372.1A164.652,164.652,0,0,1,256,91.792c90.921,0,164.891,73.664,164.891,164.208S346.921,420.208,256,420.208,91.109,346.544,91.109,256a162.736,162.736,0,0,1,25.755-88.032,5.995,5.995,0,1,0-10.117-6.434A174.647,174.647,0,0,0,79.109,256c0,97.162,79.353,176.208,176.891,176.208S432.891,353.162,432.891,256,353.538,79.792,256,79.792Z"/><path d="M256,395.443c77.185,0,139.979-62.554,139.979-139.443S333.185,116.557,256,116.557,116.021,179.111,116.021,256,178.815,395.443,256,395.443ZM129.405,274.718l95.569,11.513c.2.2.4.406.6.605l11.52,95.215C181.6,373.832,137.612,330,129.405,274.718ZM224.579,256A31.421,31.421,0,1,1,256,287.272,31.382,31.382,0,0,1,224.579,256Zm38.053,127.274q-3.294.168-6.632.169-3.354,0-6.667-.172l-10.6-87.575a43.459,43.459,0,0,0,34.5.013Zm12.234-1.218,11.526-95.19q.3-.3.605-.6l95.593-11.508C374.367,330.033,330.373,373.853,274.866,382.056ZM383.979,256q0,3.279-.167,6.52l-87.936,10.586a43.026,43.026,0,0,0-.084-34.4l88.011,10.6Q383.976,252.634,383.979,256Zm-1.414-18.925-95.759-11.536c-.117-.117-.237-.232-.355-.349l-11.523-95.237C330.348,138.17,374.281,181.9,382.565,237.075ZM249.343,128.728q3.308-.169,6.657-.171,3.368,0,6.691.173l10.6,87.586a43.45,43.45,0,0,0-34.549-.013Zm-12.235,1.22L225.581,225.16c-.119.117-.24.231-.358.349l-95.784,11.53C137.739,181.866,181.683,138.15,237.108,129.948ZM216.221,238.679a43.032,43.032,0,0,0-.111,34.4l-87.924-10.592q-.164-3.222-.165-6.484,0-3.384.179-6.725Z"/></svg>
